<?xml version="1.0" encoding="UTF-8" standalone="no"?>
<!-- Generator: Adobe Illustrator 19.0.0, SVG Export Plug-In . SVG Version: 6.00 Build 0)  -->

<svg
   version="1.1"
   id="Layer_1"
   x="0px"
   y="0px"
   viewBox="0 0 398.90143 398.89999"
   xml:space="preserve"
   sodipodi:docname="LogoOnly.svg"
   width="398.90143"
   height="398.89999"
   inkscape:version="1.3 (0e150ed6c4, 2023-07-21)"
   xmlns:inkscape="http://www.inkscape.org/namespaces/inkscape"
   xmlns:sodipodi="http://sodipodi.sourceforge.net/DTD/sodipodi-0.dtd"
   xmlns="http://www.w3.org/2000/svg"
   xmlns:svg="http://www.w3.org/2000/svg"><defs
   id="defs1" /><sodipodi:namedview
   id="namedview1"
   pagecolor="#ffffff"
   bordercolor="#000000"
   borderopacity="0.25"
   inkscape:showpageshadow="2"
   inkscape:pageopacity="0.0"
   inkscape:pagecheckerboard="0"
   inkscape:deskcolor="#d1d1d1"
   inkscape:zoom="1.6588725"
   inkscape:cx="275.48832"
   inkscape:cy="275.18691"
   inkscape:window-width="3440"
   inkscape:window-height="1369"
   inkscape:window-x="1912"
   inkscape:window-y="-8"
   inkscape:window-maximized="1"
   inkscape:current-layer="XMLID_1_" />&#10;<style
   type="text/css"
   id="style1">&#10;	.st0{fill:none;}&#10;</style>&#10;<g
   id="XMLID_1_"
   transform="translate(-300.5,-245.3)">&#10;	<path
   id="XMLID_3_"
   d="m 377.7,572 8.6,5.2 c 12.1,-13.1 29.3,-20.7 47.2,-20.7 16,0 31.1,6.1 42.7,16.3 3.1,-2 6.5,-3.7 10,-4.9 -13.6,-13.6 -32.3,-21.7 -52.7,-21.7 -13.4,0 -26.4,3.6 -37.7,10.3 20.7,-37.4 60.4,-61.4 104.2,-61.4 43.8,0 83.5,24 104.2,61.4 -11.3,-6.6 -24.4,-10.3 -37.7,-10.3 -20.4,0 -39.1,8.1 -52.7,21.7 -2.2,2.2 -4.3,4.6 -6.3,7.1 -2.3,3 -4.4,6.1 -6.2,9.5 3.7,0.2 7.2,1.2 10.3,2.8 1.8,-2.9 3.8,-5.7 6.1,-8.3 1.9,-2.2 4,-4.3 6.1,-6.2 11.5,-10.2 26.6,-16.3 42.7,-16.3 17.9,0 35.1,7.5 47.2,20.7 l 8.6,-5.2 c -18,-52.1 -67.2,-87.1 -122.3,-87.1 -55.1,0 -104.3,35 -122.3,87.1 z m 114.8,3 c -3.6,0.8 -7.1,2.2 -10.2,4 2.3,2.6 4.3,5.4 6.1,8.3 3.1,-1.6 6.6,-2.6 10.3,-2.8 -1.8,-3.4 -3.9,-6.6 -6.2,-9.5 z" />&#10;	<path
   id="XMLID_4_"
   d="m 500,479.8 c -19.3,0 -35,-15.7 -35,-35 0,-19.3 15.7,-35 35,-35 19.3,0 35,15.7 35,35 0,19.3 -15.7,35 -35,35 z m 0,-59.8 c -13.7,0 -24.8,11.1 -24.8,24.8 0,13.7 11.1,24.8 24.8,24.8 13.7,0 24.8,-11.1 24.8,-24.8 0,-13.7 -11.1,-24.8 -24.8,-24.8 z" />&#10;	<path
   id="XMLID_8_"
   d="m 473.6,632.1 c 6.4,7.4 15.9,12.1 26.4,12.1 10.5,0 20,-4.7 26.4,-12.1 v 0 c 2.4,-2.8 4.4,-6 5.9,-9.5 1.7,-4.1 2.7,-8.7 2.7,-13.4 0,-9.8 -4,-18.7 -10.5,-25 l -0.4,0.4 c -1.9,2.2 -3.7,4.6 -5.3,7.2 -0.2,0.3 -0.3,0.5 -0.5,0.8 4,4.4 6.4,10.2 6.4,16.6 0,5.7 -1.9,11 -5.2,15.2 -4.5,5.8 -11.5,9.6 -19.5,9.6 -9,0 -17.8,-0.7 -26.4,-1.9 z M 465,609.2 c 0,4.7 0.9,9.2 2.6,13.3 2.2,0.4 4.4,0.8 6.5,1 v 0 l 0.6,0.1 c 1.9,0.3 3.8,0.5 5.7,0.7 -3.2,-4.2 -5.2,-9.4 -5.2,-15.2 0,-6.4 2.4,-12.2 6.4,-16.6 1.9,-2.1 4.2,-3.9 6.8,-5.3 3.1,-1.6 6.6,-2.6 10.3,-2.8 0.4,0 0.9,0 1.3,0 0.4,0 0.9,0 1.3,0 3.7,0.2 7.2,1.2 10.3,2.8 1.8,-2.9 3.8,-5.7 6.1,-8.3 -3.1,-1.8 -6.5,-3.2 -10.2,-4 -2.4,-0.5 -4.9,-0.8 -7.5,-0.8 -2.6,0 -5.1,0.3 -7.5,0.8 -3.6,0.8 -7.1,2.2 -10.2,4 -2.5,1.5 -4.8,3.2 -6.8,5.2 -6.5,6.4 -10.5,15.3 -10.5,25.1 z" />&#10;	<path
   id="XMLID_7_"
   d="m 630,446.4 c -8,-13.9 -10.3,-30 -7.2,-45.1 -3.3,-1.7 -6.5,-3.8 -9.2,-6.3 -5,18.6 -2.6,38.8 7.6,56.5 6.7,11.6 16.3,21.1 27.8,27.6 -42.7,0.7 -83.4,-21.6 -105.3,-59.6 -21.9,-37.9 -21,-84.3 1,-120.9 -0.1,13.2 3.3,26.3 10,37.8 10.2,17.6 26.5,29.8 45.1,34.8 3.1,0.8 6.1,1.5 9.3,1.9 3.7,0.5 7.5,0.7 11.3,0.6 -1.7,-3.2 -2.6,-6.8 -2.7,-10.3 -3.5,-0.1 -6.9,-0.5 -10.3,-1.1 -2.9,-0.5 -5.7,-1.3 -8.5,-2.2 -14.6,-4.9 -27.4,-14.9 -35.4,-28.8 -9,-15.5 -11,-34.2 -5.7,-51.2 l -8.8,-4.9 c -36.1,41.6 -41.8,101.7 -14.3,149.5 23.4,40.5 66.5,64.7 112.1,64.7 8.1,0 16.3,-0.8 24.5,-2.3 l 0.2,-10 c -17.4,-4 -32.6,-15.2 -41.5,-30.7 z m -4.9,-53.5 c 1.1,-3.2 2.5,-6.4 4.2,-9.4 -3,-1.9 -5.6,-4.4 -7.6,-7.5 -2,3.3 -3.7,6.6 -5.1,10.1 2.4,2.7 5.3,5 8.5,6.8 z" />&#10;	<path
   id="XMLID_6_"
   d="m 500.1,479.8 c -3,0 -6.1,-0.4 -9.1,-1.2 -9,-2.4 -16.6,-8.2 -21.3,-16.3 -4.7,-8.1 -5.9,-17.5 -3.5,-26.6 2.4,-9 8.2,-16.6 16.3,-21.3 8.1,-4.7 17.5,-5.9 26.6,-3.5 9,2.4 16.6,8.2 21.3,16.3 4.7,8.1 5.9,17.5 3.5,26.6 -2.4,9 -8.2,16.6 -16.3,21.3 -5.5,3.1 -11.5,4.7 -17.5,4.7 z M 500,420 c -4.3,0 -8.5,1.1 -12.3,3.3 v 0 c -5.7,3.3 -9.8,8.6 -11.5,15 -1.7,6.4 -0.8,13.1 2.5,18.8 3.3,5.7 8.6,9.8 15,11.5 6.4,1.7 13.1,0.8 18.8,-2.5 5.7,-3.3 9.8,-8.6 11.5,-15 1.7,-6.4 0.8,-13.1 -2.5,-18.8 -3.3,-5.7 -8.6,-9.8 -15,-11.5 -2.2,-0.6 -4.4,-0.8 -6.5,-0.8 z" />&#10;	<path
   id="XMLID_12_"
   d="m 667.6,377.3 c -0.7,-1.8 -1.5,-3.6 -2.3,-5.3 -2,4.9 -5.6,9.2 -10.5,12.1 -5.4,3.1 -11.6,4.1 -17.6,2.8 -0.4,-0.1 -0.8,-0.2 -1.2,-0.3 -2.4,-0.7 -4.7,-1.7 -6.8,-3 -3,-1.9 -5.6,-4.4 -7.6,-7.5 -0.2,-0.4 -0.5,-0.7 -0.7,-1.1 -0.2,-0.4 -0.4,-0.8 -0.6,-1.1 -1.7,-3.2 -2.6,-6.8 -2.7,-10.3 -3.5,-0.1 -6.9,-0.5 -10.3,-1.1 0,3.7 0.5,7.3 1.7,10.8 0.8,2.4 1.8,4.7 3.1,6.9 1.3,2.2 2.8,4.2 4.5,6.1 2.5,2.7 5.3,5 8.5,6.8 2.4,1.4 5.1,2.5 7.9,3.3 0.1,0.1 0.3,0.1 0.4,0.1 3,0.8 6.1,1.2 9.1,1.2 6.1,0 12.1,-1.6 17.5,-4.7 4.1,-2.4 7.5,-5.4 10.2,-8.9 -0.9,-2.5 -1.7,-4.7 -2.6,-6.8 z m 6.1,-30.6 c 0,0 0,0 0,0 -0.3,-0.6 -0.6,-1.2 -0.9,-1.7 -0.3,-0.6 -0.7,-1.2 -1.1,-1.8 0,0 0,0 0,0 -4.7,-7.2 -11.8,-12.3 -20.1,-14.5 -0.9,-0.2 -1.7,-0.4 -2.6,-0.6 -3.7,-0.7 -7.4,-0.8 -11.1,-0.3 -4.5,0.6 -8.9,2.1 -12.9,4.4 -8.1,4.7 -13.9,12.2 -16.3,21.2 0,0.1 -0.1,0.3 -0.1,0.4 0.2,0.1 0.3,0.1 0.5,0.1 3,0.6 6,0.9 8.9,1 0.3,0 0.6,0 1,0 0.9,-2.7 2.2,-5.3 3.9,-7.5 2,-2.5 4.4,-4.7 7.3,-6.4 3.8,-2.2 8,-3.3 12.3,-3.3 1.1,0 2.2,0.1 3.3,0.2 v 0 c 1.1,0.1 2.1,0.3 3.2,0.6 5.8,1.6 10.7,5.1 14.1,10 0,0 0,0 0,0.1 0,0 0,0 0,0.1 0.3,0.5 0.6,0.9 0.9,1.4 0.3,0.5 0.5,1 0.8,1.5 0,0 0,0 0,0 0,0 0,0.1 0,0.1 0,0 0,0 0,0.1 4.1,7.1 7.7,14.6 10.8,22.3 2.9,-8.8 2.5,-18.6 -1.9,-27.4 z" />&#10;	<path
   id="XMLID_10_"
   d="m 451,275.2 -8.8,4.9 c 5.3,17.1 3.2,35.7 -5.7,51.2 -8,13.9 -20.8,23.9 -35.4,28.8 0.2,3.8 -0.1,7.5 -0.8,11.2 18.5,-5 34.9,-17.2 45.1,-34.8 6.7,-11.6 10.1,-24.7 10,-37.8 22,36.6 22.9,83 1,120.9 -21.6,37.3 -61.2,59.6 -103.2,59.6 -0.7,0 -1.4,0 -2.1,0 11.4,-6.5 21.1,-16 27.8,-27.6 10.2,-17.7 12.6,-37.9 7.6,-56.5 -0.8,-3 -1.8,-6 -3,-9 -1.4,-3.5 -3.1,-6.8 -5.1,-10.1 -2,3.1 -4.6,5.7 -7.6,7.5 1.7,3 3,6.2 4.2,9.5 1,2.7 1.7,5.6 2.3,8.4 3.1,15.1 0.8,31.2 -7.2,45.1 -8.9,15.5 -24.1,26.6 -41.5,30.6 l 0.2,10 c 8.2,1.6 16.4,2.3 24.5,2.3 45.6,0 88.7,-24.2 112.1,-64.7 27.4,-47.8 21.7,-107.9 -14.4,-149.5 z m -58.4,87.1 c -3.4,0.6 -6.8,1 -10.3,1.1 -0.1,3.6 -1,7.1 -2.7,10.3 3.8,0.1 7.6,-0.2 11.3,-0.6 1.2,-3.5 1.7,-7.1 1.7,-10.8 z" />&#10;	<path
   id="XMLID_9_"
   d="m 499.9,479.8 c -6.1,0 -12.1,-1.6 -17.5,-4.7 v 0 c -8.1,-4.7 -13.9,-12.2 -16.3,-21.3 -2.4,-9 -1.2,-18.5 3.5,-26.6 4.7,-8.1 12.2,-13.9 21.3,-16.3 9,-2.4 18.5,-1.2 26.6,3.5 8.1,4.7 13.9,12.2 16.3,21.3 2.4,9 1.2,18.5 -3.5,26.6 -4.7,8.1 -12.2,13.9 -21.3,16.3 -3,0.8 -6,1.2 -9.1,1.2 z M 500,420 c -2.2,0 -4.3,0.3 -6.5,0.9 -6.4,1.7 -11.7,5.8 -15,11.5 -3.3,5.7 -4.2,12.4 -2.5,18.8 1.7,6.4 5.8,11.7 11.5,15 v 0 c 5.7,3.3 12.4,4.2 18.8,2.5 6.4,-1.7 11.7,-5.8 15,-11.5 3.3,-5.7 4.2,-12.4 2.5,-18.8 -1.7,-6.4 -5.8,-11.7 -11.5,-15 -3.7,-2.3 -8,-3.4 -12.3,-3.4 z" />&#10;	<path
   id="XMLID_5_"
   d="m 366.9,395.8 c -1,-2.9 -2.2,-5.7 -3.6,-8.2 -0.2,-0.3 -0.3,-0.6 -0.5,-0.9 -5.8,1.3 -12.1,0.5 -17.6,-2.7 -4.9,-2.9 -8.5,-7.2 -10.5,-12.1 -2.6,-6.4 -2.5,-13.7 0.7,-20.3 0,0 0,0 0,0 0.2,-0.5 0.5,-1 0.8,-1.5 0.3,-0.5 0.6,-1 1,-1.5 4.2,-7.1 8.9,-14 14,-20.5 -0.9,0.2 -1.7,0.4 -2.6,0.6 -8.4,2.2 -15.5,7.4 -20.2,14.6 -0.4,0.6 -0.8,1.2 -1.1,1.8 -0.3,0.6 -0.6,1.2 -0.9,1.7 -2.5,5 -3.8,10.4 -3.8,15.7 0,3.9 0.7,7.8 1.9,11.5 1.2,3.5 3,6.8 5.3,9.8 2.7,3.6 6.2,6.7 10.3,9 5.5,3.2 11.5,4.7 17.4,4.7 3.2,0 6.4,-0.4 9.5,-1.3 0,-0.1 -0.1,-0.3 -0.1,-0.4 z m 24.6,-42 c 0,-0.1 -0.1,-0.3 -0.1,-0.4 -2.4,-9 -8.2,-16.6 -16.3,-21.2 -4,-2.3 -8.3,-3.8 -12.7,-4.4 -1.5,1.8 -3.1,3.7 -4.6,5.6 -1.2,1.5 -2.3,3 -3.5,4.6 5.4,-0.7 10.8,0.4 15.6,3.1 5.4,3.1 9.3,8 11.2,13.9 0.1,0.4 0.2,0.8 0.3,1.2 0.6,2.4 0.9,4.9 0.8,7.3 -0.1,3.6 -1,7.1 -2.7,10.3 -0.2,0.4 -0.4,0.8 -0.6,1.1 -0.2,0.4 -0.4,0.7 -0.7,1.1 -2,3.1 -4.6,5.7 -7.6,7.5 1.7,3 3,6.2 4.2,9.5 3.2,-1.8 6,-4.1 8.5,-6.8 1.7,-1.8 3.2,-3.9 4.5,-6.1 1.3,-2.2 2.3,-4.5 3.1,-6.9 1.1,-3.5 1.7,-7.1 1.7,-10.8 0,-2.9 -0.4,-5.8 -1.1,-8.6 z" />&#10;	<path
   id="XMLID_13_"
   d="m 685.2,370.6 c -3.3,-8.2 -7.2,-16.2 -11.5,-23.9 0,0 0,-0.1 0,-0.1 -0.7,-1.2 -1.3,-2.3 -2,-3.5 0,0 0,0 0,0 -4.7,-7.2 -11.8,-12.3 -20.2,-14.5 -0.9,-0.2 -1.7,-0.4 -2.6,-0.6 5.1,6.5 9.8,13.4 14,20.5 0,0 0,0 0,0.1 0,0 0,0 0.1,0 0.6,1 1.1,1.9 1.7,2.9 0,0 0,0.1 0,0.1 0,0 0,0 0,0.1 4.1,7.1 7.7,14.6 10.8,22.3 1.5,3.6 2.9,7.4 4.1,11.2 6.2,18.7 9.6,38.8 9.6,59.6 0,38.1 -11.3,73.6 -30.8,103.3 h 12.1 c 18.3,-30.1 28.9,-65.5 28.9,-103.3 0.1,-26.2 -5,-51.2 -14.2,-74.2 z m -374.4,74.1 c 0,-20.8 3.4,-40.8 9.6,-59.6 -2.7,-4.5 -4.6,-9.4 -5.6,-14.6 -9.2,22.9 -14.3,48 -14.3,74.1 0,37.8 10.6,73.2 28.9,103.3 h 12.1 C 322.1,518.3 310.8,482.8 310.8,444.7 Z M 500,245.3 c -63.4,0 -120.1,29.8 -156.6,76.1 -5.5,7 -10.5,14.3 -15,21.9 -0.7,1.2 -1.4,2.3 -2,3.5 -2.5,5 -3.7,10.4 -3.7,15.7 0,4 0.7,7.8 1.9,11.6 3.1,-7.7 6.7,-15.2 10.8,-22.4 0.6,-1 1.2,-2 1.8,-3 4.2,-7.2 8.9,-14 14,-20.5 2.5,-3.1 5,-6.2 7.7,-9.1 34.6,-38.9 85.1,-63.4 141.2,-63.4 56.1,0 106.6,24.6 141.2,63.4 0.4,0 0.8,0 1.2,0 3.8,0 7.6,0.5 11.3,1.5 1,0.3 2,0.6 2.9,0.9 C 620.1,275 563.4,245.3 500,245.3 Z" />&#10;	<path
   id="XMLID_97_"
   d="m 329.4,548 c 30.3,49.9 82,85.5 142.2,94.2 9.3,1.3 18.8,2 28.4,2 10.6,0 20,-4.7 26.4,-12.1 -8.6,1.2 -17.5,1.9 -26.4,1.9 -8.9,0 -17.8,-0.6 -26.4,-1.9 v 0 c -4,-0.5 -7.9,-1.2 -11.7,-2 C 411.7,619.8 368.7,589.5 341.6,548 Z" />&#10;	<path
   id="XMLID_99_"
   d="M 528.4,642.2 C 588.6,633.6 640.2,598 670.6,548 h -12.1 c -27.1,41.5 -70.1,71.7 -120.3,82.1 -2.5,4.6 -5.8,8.7 -9.8,12.1 z" />&#10;	<path
   id="XMLID_11_"
   d="M 477.4,368" />&#10;	&#10;</g>&#10;<rect
   id="XMLID_91_"
   class="st0"
   width="1000"
   height="1000"
   x="-300.5"
   y="-245.3" />&#10;</svg>
