<?xml version="1.0" standalone="no"?>
<svg xmlns="http://www.w3.org/2000/svg"
     xmlns:xlink="http://www.w3.org/1999/xlink"
     style="isolation:isolate"
     viewBox="0 0 398.901 398.9"
     width="398.901"
     height="398.9">
<path d=" M 77.2 326.7 L 85.8 331.9 C 97.9 318.8 115.1 311.2 133 311.2 C 149 311.2 164.1 317.3 175.7 327.5 C 178.8 325.5 182.2 323.8 185.7 322.6 C 172.1 309 153.4 300.9 133 300.9 C 119.6 300.9 106.6 304.5 95.3 311.2 C 116 273.8 155.7 249.8 199.5 249.8 C 243.3 249.8 283 273.8 303.7 311.2 C 292.4 304.6 279.3 300.9 266 300.9 C 245.6 300.9 226.9 309 213.3 322.6 C 211.1 324.8 209 327.2 207 329.7 C 204.7 332.7 202.6 335.8 200.8 339.2 C 204.5 339.4 208 340.4 211.1 342 C 212.9 339.1 214.9 336.3 217.2 333.7 C 219.1 331.5 221.2 329.4 223.3 327.5 C 234.8 317.3 249.9 311.2 266 311.2 C 283.9 311.2 301.1 318.7 313.2 331.9 L 321.8 326.7 C 303.8 274.6 254.6 239.6 199.5 239.6 C 144.4 239.6 95.2 274.6 77.2 326.7 L 77.2 326.7 Z  M 192 329.7 C 188.4 330.5 184.9 331.9 181.8 333.7 C 184.1 336.3 186.1 339.1 187.9 342 C 191 340.4 194.5 339.4 198.2 339.2 C 196.4 335.8 194.3 332.6 192 329.7 L 192 329.7 Z "
    fill="rgb(244,244,244)"/>
<path d=" M 199.5 234.5 C 180.2 234.5 164.5 218.8 164.5 199.5 C 164.5 180.2 180.2 164.5 199.5 164.5 C 218.8 164.5 234.5 180.2 234.5 199.5 C 234.5 218.8 218.8 234.5 199.5 234.5 Z  M 199.5 174.7 C 185.8 174.7 174.7 185.8 174.7 199.5 C 174.7 213.2 185.8 224.3 199.5 224.3 C 213.2 224.3 224.3 213.2 224.3 199.5 C 224.3 185.8 213.2 174.7 199.5 174.7 L 199.5 174.7 Z "
    fill="rgb(244,244,244)"/>
<path d=" M 173.1 386.8 C 179.5 394.2 189 398.9 199.5 398.9 C 210 398.9 219.5 394.2 225.9 386.8 L 225.9 386.8 C 228.3 384 230.3 380.8 231.8 377.3 C 233.5 373.2 234.5 368.6 234.5 363.9 C 234.5 354.1 230.5 345.2 224 338.9 L 223.6 339.3 C 221.7 341.5 219.9 343.9 218.3 346.5 C 218.1 346.8 218 347 217.8 347.3 C 221.8 351.7 224.2 357.5 224.2 363.9 C 224.2 369.6 222.3 374.9 219 379.1 C 214.5 384.9 207.5 388.7 199.5 388.7 C 190.5 388.7 181.7 388 173.1 386.8 L 173.1 386.8 Z  M 164.5 363.9 C 164.5 368.6 165.4 373.1 167.1 377.2 C 169.3 377.6 171.5 378 173.6 378.2 L 173.6 378.2 L 174.2 378.3 C 176.1 378.6 178 378.8 179.9 379 C 176.7 374.8 174.7 369.6 174.7 363.8 C 174.7 357.4 177.1 351.6 181.1 347.2 C 183 345.1 185.3 343.3 187.9 341.9 C 191 340.3 194.5 339.3 198.2 339.1 C 198.6 339.1 199.1 339.1 199.5 339.1 C 199.9 339.1 200.4 339.1 200.8 339.1 C 204.5 339.3 208 340.3 211.1 341.9 C 212.9 339 214.9 336.2 217.2 333.6 C 214.1 331.8 210.7 330.4 207 329.6 C 204.6 329.1 202.1 328.8 199.5 328.8 C 196.9 328.8 194.4 329.1 192 329.6 C 188.4 330.4 184.9 331.8 181.8 333.6 C 179.3 335.1 177 336.8 175 338.8 C 168.5 345.2 164.5 354.1 164.5 363.9 L 164.5 363.9 Z "
    fill="rgb(244,244,244)"/>
<path d=" M 329.5 201.1 C 321.5 187.2 319.2 171.1 322.3 156 C 319 154.3 315.8 152.2 313.1 149.7 C 308.1 168.3 310.5 188.5 320.7 206.2 C 327.4 217.8 337 227.3 348.5 233.8 C 305.8 234.5 265.1 212.2 243.2 174.2 C 221.3 136.3 222.2 89.9 244.2 53.3 C 244.1 66.5 247.5 79.6 254.2 91.1 C 264.4 108.7 280.7 120.9 299.3 125.9 C 302.4 126.7 305.4 127.4 308.6 127.8 C 312.3 128.3 316.1 128.5 319.9 128.4 C 318.2 125.2 317.3 121.6 317.2 118.1 C 313.7 118 310.3 117.6 306.9 117 C 304 116.5 301.2 115.7 298.4 114.8 C 283.8 109.9 271 99.9 263 86 C 254 70.5 252 51.8 257.3 34.8 L 248.5 29.9 C 212.4 71.5 206.7 131.6 234.2 179.4 C 257.6 219.9 300.7 244.1 346.3 244.1 C 354.4 244.1 362.6 243.3 370.8 241.8 L 371 231.8 C 353.6 227.8 338.4 216.6 329.5 201.1 L 329.5 201.1 Z  M 324.6 147.6 C 325.7 144.4 327.1 141.2 328.8 138.2 C 325.8 136.3 323.2 133.8 321.2 130.7 C 319.2 134 317.5 137.3 316.1 140.8 C 318.5 143.5 321.4 145.8 324.6 147.6 L 324.6 147.6 Z "
    fill="rgb(244,244,244)"/>
<path d=" M 367.1 132 C 366.4 130.2 365.6 128.4 364.8 126.7 C 362.8 131.6 359.2 135.9 354.3 138.8 C 348.9 141.9 342.7 142.9 336.7 141.6 C 336.3 141.5 335.9 141.4 335.5 141.3 C 333.1 140.6 330.8 139.6 328.7 138.3 C 325.7 136.4 323.1 133.9 321.1 130.8 C 320.9 130.4 320.6 130.1 320.4 129.7 C 320.2 129.3 320 128.9 319.8 128.6 C 318.1 125.4 317.2 121.8 317.1 118.3 C 313.6 118.2 310.2 117.8 306.8 117.2 C 306.8 120.9 307.3 124.5 308.5 128 C 309.3 130.4 310.3 132.7 311.6 134.9 C 312.9 137.1 314.4 139.1 316.1 141 C 318.6 143.7 321.4 146 324.6 147.8 C 327 149.2 329.7 150.3 332.5 151.1 C 332.6 151.2 332.8 151.2 332.9 151.2 C 335.9 152 339 152.4 342 152.4 C 348.1 152.4 354.1 150.8 359.5 147.7 C 363.6 145.3 367 142.3 369.7 138.8 C 368.8 136.3 368 134.1 367.1 132 Z  M 373.2 101.4 C 373.2 101.4 373.2 101.4 373.2 101.4 C 372.9 100.8 372.6 100.2 372.3 99.7 C 372 99.1 371.6 98.5 371.2 97.9 C 371.2 97.9 371.2 97.9 371.2 97.9 C 366.5 90.7 359.4 85.6 351.1 83.4 C 350.2 83.2 349.4 83 348.5 82.8 C 344.8 82.1 341.1 82 337.4 82.5 C 332.9 83.1 328.5 84.6 324.5 86.9 C 316.4 91.6 310.6 99.1 308.2 108.1 C 308.2 108.2 308.1 108.4 308.1 108.5 C 308.3 108.6 308.4 108.6 308.6 108.6 C 311.6 109.2 314.6 109.5 317.5 109.6 C 317.8 109.6 318.1 109.6 318.5 109.6 C 319.4 106.9 320.7 104.3 322.4 102.1 C 324.4 99.6 326.8 97.4 329.7 95.7 C 333.5 93.5 337.7 92.4 342 92.4 C 343.1 92.4 344.2 92.5 345.3 92.6 L 345.3 92.6 C 346.4 92.7 347.4 92.9 348.5 93.2 C 354.3 94.8 359.2 98.3 362.6 103.2 C 362.6 103.2 362.6 103.2 362.6 103.3 C 362.6 103.3 362.6 103.3 362.6 103.4 C 362.9 103.9 363.2 104.3 363.5 104.8 C 363.8 105.3 364 105.8 364.3 106.3 C 364.3 106.3 364.3 106.3 364.3 106.3 C 364.3 106.3 364.3 106.4 364.3 106.4 C 364.3 106.4 364.3 106.4 364.3 106.5 C 368.4 113.6 372 121.1 375.1 128.8 C 378 120 377.6 110.2 373.2 101.4 L 373.2 101.4 Z "
    fill="rgb(244,244,244)"/>
<path d=" M 150.5 29.9 L 141.7 34.8 C 147 51.9 144.9 70.5 136 86 C 128 99.9 115.2 109.9 100.6 114.8 C 100.8 118.6 100.5 122.3 99.8 126 C 118.3 121 134.7 108.8 144.9 91.2 C 151.6 79.6 155 66.5 154.9 53.4 C 176.9 90 177.8 136.4 155.9 174.3 C 134.3 211.6 94.7 233.9 52.7 233.9 C 52 233.9 51.3 233.9 50.6 233.9 C 62 227.4 71.7 217.9 78.4 206.3 C 88.6 188.6 91 168.4 86 149.8 C 85.2 146.8 84.2 143.8 83 140.8 C 81.6 137.3 79.9 134 77.9 130.7 C 75.9 133.8 73.3 136.4 70.3 138.2 C 72 141.2 73.3 144.4 74.5 147.7 C 75.5 150.4 76.2 153.3 76.8 156.1 C 79.9 171.2 77.6 187.3 69.6 201.2 C 60.7 216.7 45.5 227.8 28.1 231.8 L 28.3 241.8 C 36.5 243.4 44.7 244.1 52.8 244.1 C 98.4 244.1 141.5 219.9 164.9 179.4 C 192.3 131.6 186.6 71.5 150.5 29.9 L 150.5 29.9 Z  M 92.1 117 C 88.7 117.6 85.3 118 81.8 118.1 C 81.7 121.7 80.8 125.2 79.1 128.4 C 82.9 128.5 86.7 128.2 90.4 127.8 C 91.6 124.3 92.1 120.7 92.1 117 Z "
    fill="rgb(244,244,244)"/>
<path d=" M 66.4 150.5 C 65.4 147.6 64.2 144.8 62.8 142.3 C 62.6 142 62.5 141.7 62.3 141.4 C 56.5 142.7 50.2 141.9 44.7 138.7 C 39.8 135.8 36.2 131.5 34.2 126.6 C 31.6 120.2 31.7 112.9 34.9 106.3 C 34.9 106.3 34.9 106.3 34.9 106.3 C 35.1 105.8 35.4 105.3 35.7 104.8 C 36 104.3 36.3 103.8 36.7 103.3 C 40.9 96.2 45.6 89.3 50.7 82.8 C 49.8 83 49 83.2 48.1 83.4 C 39.7 85.6 32.6 90.8 27.9 98 C 27.5 98.6 27.1 99.2 26.8 99.8 C 26.5 100.4 26.2 101 25.9 101.5 C 23.4 106.5 22.1 111.9 22.1 117.2 C 22.1 121.1 22.8 125 24 128.7 C 25.2 132.2 27 135.5 29.3 138.5 C 32 142.1 35.5 145.2 39.6 147.5 C 45.1 150.7 51.1 152.2 57 152.2 C 60.2 152.2 63.4 151.8 66.5 150.9 C 66.5 150.8 66.4 150.6 66.4 150.5 L 66.4 150.5 Z  M 91 108.5 C 91 108.4 90.9 108.2 90.9 108.1 C 88.5 99.1 82.7 91.5 74.6 86.9 C 70.6 84.6 66.3 83.1 61.9 82.5 C 60.4 84.3 58.8 86.2 57.3 88.1 C 56.1 89.6 55 91.1 53.8 92.7 C 59.2 92 64.6 93.1 69.4 95.8 C 74.8 98.9 78.7 103.8 80.6 109.7 C 80.7 110.1 80.8 110.5 80.9 110.9 C 81.5 113.3 81.8 115.8 81.7 118.2 C 81.6 121.8 80.7 125.3 79 128.5 C 78.8 128.9 78.6 129.3 78.4 129.6 C 78.2 130 78 130.3 77.7 130.7 C 75.7 133.8 73.1 136.4 70.1 138.2 C 71.8 141.2 73.1 144.4 74.3 147.7 C 77.5 145.9 80.3 143.6 82.8 140.9 C 84.5 139.1 86 137 87.3 134.8 C 88.6 132.6 89.6 130.3 90.4 127.9 C 91.5 124.4 92.1 120.8 92.1 117.1 C 92.1 114.2 91.7 111.3 91 108.5 L 91 108.5 Z "
    fill="rgb(244,244,244)"/>
<path d=" M 384.7 125.3 C 381.4 117.1 377.5 109.1 373.2 101.4 C 373.2 101.4 373.2 101.3 373.2 101.3 C 372.5 100.1 371.9 99 371.2 97.8 C 371.2 97.8 371.2 97.8 371.2 97.8 C 366.5 90.6 359.4 85.5 351 83.3 C 350.1 83.1 349.3 82.9 348.4 82.7 C 353.5 89.2 358.2 96.1 362.4 103.2 C 362.4 103.2 362.4 103.2 362.4 103.3 C 362.4 103.3 362.4 103.3 362.5 103.3 C 363.1 104.3 363.6 105.2 364.2 106.2 C 364.2 106.2 364.2 106.3 364.2 106.3 C 364.2 106.3 364.2 106.3 364.2 106.4 C 368.3 113.5 371.9 121 375 128.7 C 376.5 132.3 377.9 136.1 379.1 139.9 C 385.3 158.6 388.7 178.7 388.7 199.5 C 388.7 237.6 377.4 273.1 357.9 302.8 L 370 302.8 C 388.3 272.7 398.9 237.3 398.9 199.5 C 399 173.3 393.9 148.3 384.7 125.3 Z  M 10.3 199.4 C 10.3 178.6 13.7 158.6 19.9 139.8 C 17.2 135.3 15.3 130.4 14.3 125.2 C 5.1 148.1 0 173.2 0 199.3 C 0 237.1 10.6 272.5 28.9 302.6 L 41 302.6 C 21.6 273 10.3 237.5 10.3 199.4 L 10.3 199.4 Z  M 199.5 0 C 136.1 0 79.4 29.8 42.9 76.1 C 37.4 83.1 32.4 90.4 27.9 98 C 27.2 99.2 26.5 100.3 25.9 101.5 C 23.4 106.5 22.2 111.9 22.2 117.2 C 22.2 121.2 22.9 125 24.1 128.8 C 27.2 121.1 30.8 113.6 34.9 106.4 C 35.5 105.4 36.1 104.4 36.7 103.4 C 40.9 96.2 45.6 89.4 50.7 82.9 C 53.2 79.8 55.7 76.7 58.4 73.8 C 93 34.9 143.5 10.4 199.6 10.4 C 255.7 10.4 306.2 35 340.8 73.8 C 341.2 73.8 341.6 73.8 342 73.8 C 345.8 73.8 349.6 74.3 353.3 75.3 C 354.3 75.6 355.3 75.9 356.2 76.2 C 319.6 29.7 262.9 0 199.5 0 Z "
    fill="rgb(244,244,244)"/>
<path d=" M 28.9 302.7 C 59.2 352.6 110.9 388.2 171.1 396.9 C 180.4 398.2 189.9 398.9 199.5 398.9 C 210.1 398.9 219.5 394.2 225.9 386.8 C 217.3 388 208.4 388.7 199.5 388.7 C 190.6 388.7 181.7 388.1 173.1 386.8 L 173.1 386.8 C 169.1 386.3 165.2 385.6 161.4 384.8 C 111.2 374.5 68.2 344.2 41.1 302.7 L 28.9 302.7 Z "
    fill="rgb(244,244,244)"/>
<path d=" M 227.9 396.9 C 288.1 388.3 339.7 352.7 370.1 302.7 L 358 302.7 C 330.9 344.2 287.9 374.4 237.7 384.8 C 235.2 389.4 231.9 393.5 227.9 396.9 L 227.9 396.9 Z "
    fill="rgb(244,244,244)"/>
</svg>
